<svg width="26" height="18" viewBox="0 0 26 18" fill="none" xmlns="http://www.w3.org/2000/svg">
<path d="M0.77537 10.0417L8.38544 17.6518C8.84975 18.1161 9.60277 18.1161 10.0671 17.6518C10.5315 17.1874 10.5315 16.4345 10.0671 15.9701L4.48689 10.39L24.8109 10.39C25.4676 10.39 26 9.85753 26 9.20088C26 8.54432 25.4676 8.0118 24.8109 8.0118L4.48689 8.0118L10.0669 2.43162C10.5313 1.96722 10.5313 1.21439 10.0669 0.749985C9.83478 0.517973 9.53038 0.40173 9.22607 0.40173C8.92176 0.40173 8.61745 0.517973 8.38525 0.749985L0.77537 8.36006C0.310965 8.82446 0.310965 9.57729 0.77537 10.0417Z" fill="#ACFB92"/>
</svg>
