<svg width="44" height="44" viewBox="0 0 44 44" fill="none" xmlns="http://www.w3.org/2000/svg">
<path d="M3.01767 12.0317H6.87508V2.00742L1.74175 0.0824051C1.28619 -0.0883538 0.772882 0.0119359 0.415036 0.341938C0.0572764 0.672026 -0.0840916 1.17554 0.0496279 1.64356L3.01767 12.0317Z" fill="#55EBBA"/>
<path d="M3.43768 15.0392C3.43768 17.6454 5.55803 19.7658 8.16427 19.7658C10.7705 19.7658 12.8909 17.6454 12.8909 15.0392V14.6095H3.43768V15.0392Z" fill="#55EBBA"/>
<path d="M16.2788 1.64325C16.4125 1.17523 16.2711 0.671805 15.9134 0.341631C15.5556 0.0114571 15.0424 -0.0887466 14.5867 0.0820982L9.45334 2.00711V12.0314H13.3108L16.2788 1.64325Z" fill="#55EBBA"/>
<path d="M10.2479 30.1083C9.74459 29.6049 8.92835 29.6049 8.42493 30.1083L1.13282 37.4004C0.402438 38.1308 0.000161469 39.102 0.000161469 40.135C0.000161469 41.168 0.402437 42.1392 1.13291 42.8695C1.88676 43.6234 2.87711 44.0003 3.86737 44.0003C4.85764 44.0003 5.84799 43.6234 6.60184 42.8695L13.894 35.5774C14.1358 35.3356 14.2716 35.0078 14.2716 34.6659C14.2716 34.324 14.1359 33.9962 13.894 33.7544L10.2479 30.1083Z" fill="#55EBBA"/>
<path d="M40.569 3.43146C38.0192 0.881674 34.4403 -0.312177 30.492 0.0699033C26.6372 0.44296 22.8783 2.28418 19.9081 5.25446C16.9379 8.22465 15.0967 11.9834 14.7236 15.8383C14.3874 19.3122 15.2716 22.4996 17.2254 24.9521L12.9816 29.1959L14.8046 31.0189L19.0486 26.775C21.1603 28.4572 23.8163 29.3468 26.7316 29.3468C27.2021 29.3468 27.6794 29.3236 28.1621 29.2769C32.017 28.9038 35.7758 27.0626 38.746 24.0923C41.7162 21.1221 43.5574 17.3634 43.9306 13.5085C44.3126 9.56004 43.1189 5.98124 40.569 3.43146ZM34.443 2.87303C35.6676 3.16926 36.79 3.68652 37.7667 4.41072L35.5253 6.65216L33.0946 4.2214L34.443 2.87303ZM24.8302 12.4858L27.1395 10.1766L29.5702 12.6074L27.261 14.9166L24.8302 12.4858ZM25.438 16.7395L23.1287 19.0487L20.6981 16.618L23.0073 14.3088L25.438 16.7395ZM31.3931 14.4303L33.8238 16.8611L31.5147 19.1702L29.0839 16.7396L31.3931 14.4303ZM33.2162 12.6073L35.5253 10.2982L37.956 12.7288L35.6468 15.038L33.2162 12.6073ZM31.2716 6.0444L33.7024 8.47516L31.3932 10.7843L28.9625 8.35356L31.2716 6.0444ZM28.3283 3.1012L29.4486 4.22148L27.1395 6.53064L25.0953 4.48643C26.1312 3.88882 27.2172 3.42295 28.3283 3.1012ZM21.7311 7.07746C22.1203 6.68834 22.5248 6.32207 22.9422 5.97926L25.3165 8.35356L23.0073 10.6627L20.633 8.2885C20.9758 7.8711 21.342 7.46659 21.7311 7.07746ZM19.14 10.4415L21.1842 12.4857L18.875 14.795L17.7547 13.6747C18.0766 12.5635 18.5425 11.4776 19.14 10.4415ZM17.5264 19.7896L18.8751 18.441L21.3057 20.8716L19.064 23.1133C18.3398 22.1366 17.8228 21.0142 17.5264 19.7896ZM24.211 26.4739C22.9863 26.1777 21.864 25.6606 20.8871 24.9364L23.1288 22.6947L25.5596 25.1255L24.211 26.4739ZM27.3825 23.3024L24.9517 20.8716L27.261 18.5624L29.6917 20.9932L27.3825 23.3024ZM30.3258 26.2457L29.2055 25.1254L31.5148 22.8162L33.559 24.8604C32.5229 25.458 31.437 25.9238 30.3258 26.2457ZM36.923 22.2693C36.5339 22.6585 36.1294 23.0246 35.712 23.3674L33.3377 20.9932L35.6468 18.684L38.0211 21.0583C37.6783 21.4757 37.3121 21.8802 36.923 22.2693ZM39.5141 18.9053L37.4699 16.8611L39.7791 14.5519L40.8994 15.6722C40.5775 16.7833 40.1116 17.8692 39.5141 18.9053ZM39.7791 10.9058L37.3484 8.47516L39.5901 6.23347C40.3143 7.21032 40.8314 8.33267 41.1277 9.55729L39.7791 10.9058Z" fill="#55EBBA"/>
</svg>
