<svg width="42" height="42" viewBox="0 0 42 42" fill="none" xmlns="http://www.w3.org/2000/svg">
<path d="M4.52042 8.05211C7.53728 11.1118 9.47921 15.2184 9.78149 19.7695H5.19126e-06C0.258486 15.3591 1.93865 11.3149 4.52042 8.05211Z" fill="#626568"/>
<path d="M19.7695 0V19.7695H12.2423C11.9326 14.4849 9.67747 9.71504 6.15234 6.19845C9.66558 2.69374 14.503 0.308684 19.7695 0Z" fill="#626568"/>
<path d="M9.78139 22.2305C9.47918 26.7815 7.53718 30.9702 4.52032 34.0299C1.93863 30.7671 0.258463 26.6409 -1.72314e-05 22.2305H9.78139Z" fill="#626568"/>
<path d="M35.8477 6.19845C32.3225 9.71504 30.0674 14.4849 29.7577 19.7695H22.2305V0C27.497 0.308684 32.3344 2.69374 35.8477 6.19845Z" fill="#626568"/>
<path d="M12.2423 22.2305H19.7695V42C14.503 41.6913 9.66558 39.3883 6.15234 35.8836C9.67747 32.367 11.9326 27.5151 12.2423 22.2305Z" fill="#626568"/>
<path d="M29.7577 22.2305C30.0674 27.5151 32.3225 32.367 35.8477 35.8836C32.3344 39.3883 27.497 41.6914 22.2305 42V22.2305H29.7577Z" fill="#626568"/>
<path d="M42 22.2305C41.7415 26.6409 40.0614 30.7671 37.4796 34.0299C34.4627 30.9702 32.5208 26.7816 32.2185 22.2305H42Z" fill="#626568"/>
<path d="M37.4797 8.05211C40.0614 11.3149 41.7415 15.3591 42 19.7695H32.2186C32.5208 15.2185 34.4628 11.1118 37.4797 8.05211Z" fill="#626568"/>
</svg>
