<svg width="44" height="57" viewBox="0 0 44 57" fill="none" xmlns="http://www.w3.org/2000/svg">
<path d="M40.0345 0.0552351C37.8727 2.1009 27.8672 11.4793 27.8672 11.4793L28.8477 12.4983L27.9344 13.3789C26.9442 12.77 25.6313 12.7038 24.547 13.7343C22.7933 15.3996 20.134 17.1082 17.5534 17.9985C17.3872 17.8035 17.222 17.6057 17.0559 17.4107C19.9784 15.8904 25.2549 12.748 25.3797 12.6721L25.3903 12.6673L25.2913 12.6318L25.0138 12.528C24.9033 12.4954 24.7919 12.4637 24.6738 12.4474C24.2743 12.3945 23.8344 12.4397 23.3609 12.6106C20.7669 13.548 17.9183 14.7744 15.0986 15.4813C11.62 13.5076 7.16753 18.7582 10.285 22.4999C13.1912 25.9872 16.2097 29.1527 18.4609 33.0653C17.1654 35.2263 14.1468 36.3951 12.2596 37.9327C8.58028 40.9301 8.05494 45.8858 6.56247 50.0616C5.33027 53.5057 10.7979 54.9722 12.0185 51.5637C13.4899 47.4465 13.803 43.4598 17.7502 40.8965C18.192 40.6093 18.6319 40.3202 19.0641 40.0292C18.4907 42.1921 18.0278 44.3693 18.3534 46.7137C18.7491 49.5622 19.5789 52.3589 20.5412 55.0625C21.7522 58.4758 27.2208 57.0044 25.9963 53.5594C25.179 51.266 24.5019 48.9197 24.0178 46.536C23.2303 42.6636 25.3173 38.7433 25.9367 34.844C26.9797 33.631 27.4225 31.8936 26.5034 30.0775C25.0925 27.2914 23.2851 24.8356 21.3498 22.4711C24.0323 21.2908 26.5466 19.6341 28.5462 17.7344C29.4758 16.8527 29.5834 15.7886 29.2232 14.8868L30.2211 13.9254L31.2017 14.9444L43.37 3.52134C43.37 3.52134 43.9712 -0.515246 40.0345 0.0552351Z" fill="#DDB14F"/>
<path d="M10.8833 14.5151C11.1599 14.1953 11.377 13.8447 11.5421 13.4788L11.9407 13.425C11.9676 13.4222 11.9945 13.4145 12.0195 13.401C12.2961 13.2608 12.516 13.087 12.6889 12.8862C13.9873 11.3803 12.6245 8.44821 12.5573 8.30703C12.5006 8.18698 12.3566 8.13512 12.2346 8.19082L10.793 8.86215C10.6835 8.74306 10.5673 8.62781 10.4415 8.51928C10.2485 8.35313 10.0439 8.21099 9.83262 8.08518L11.1858 6.51684L10.5885 6.00014L9.09215 7.73751C7.48635 7.16511 5.627 7.59345 4.44666 8.96107C2.91098 10.7407 3.10978 13.425 4.88749 14.9569C6.6652 16.4907 9.34954 16.2918 10.8833 14.5151ZM11.8341 12.9477L11.7323 12.9621C11.8937 12.4224 11.9436 11.8615 11.8879 11.3093L12.7503 11.0692C12.7628 11.8327 12.5515 12.5645 11.8341 12.9477ZM12.2106 8.73921C12.3546 9.09072 12.6178 9.81583 12.7138 10.5813C12.6946 10.5822 12.6754 10.5842 12.6553 10.5899L11.8101 10.8252C11.6872 10.2663 11.4519 9.73035 11.1061 9.25207L12.2106 8.73921Z" fill="#DDB14F"/>
<path d="M0.978653 31.9753C0.436984 31.9753 0 32.4123 0 32.9549V52.3532C0 52.8939 0.436984 53.3337 0.978653 53.3337C1.52032 53.3337 1.95923 52.8948 1.95923 52.3532V32.9549C1.95923 32.4123 1.52032 31.9753 0.978653 31.9753Z" fill="#DDB14F"/>
<path d="M4.86063 31.9753C4.31992 31.9753 3.88197 32.4123 3.88197 32.9549V52.3532C3.88197 52.8939 4.32088 53.3337 4.86063 53.3337C5.06519 53.3337 5.25535 53.2713 5.41094 53.1628C4.97972 52.2571 4.94034 51.2103 5.31874 50.151C5.50602 49.6304 5.67505 49.0955 5.84024 48.549V32.9549C5.8412 32.4123 5.40326 31.9753 4.86063 31.9753Z" fill="#DDB14F"/>
<path d="M7.75142 32.9549V42.606C8.25659 41.3959 8.88182 40.2405 9.71065 39.186V32.9549C9.71065 32.4151 9.27366 31.9753 8.73199 31.9753C8.1884 31.9753 7.75142 32.4123 7.75142 32.9549Z" fill="#DDB14F"/>
<path d="M1.50302 31.9753H4.01064C4.29972 31.9753 4.53406 31.7409 4.53406 31.4499C4.53406 31.1628 4.29972 30.9284 4.01064 30.9284H1.50302C1.21298 30.9284 0.978638 31.1628 0.978638 31.4499C0.978638 31.7409 1.21202 31.9753 1.50302 31.9753Z" fill="#DDB14F"/>
<path d="M8.20764 30.9284H5.69906C5.40998 30.9284 5.17564 31.1628 5.17564 31.4499C5.17564 31.7409 5.40998 31.9753 5.69906 31.9753H8.20764C8.49673 31.9753 8.73203 31.7409 8.73203 31.4499C8.73203 31.1657 8.49673 30.9284 8.20764 30.9284Z" fill="#DDB14F"/>
<path d="M40.6713 14.639C40.6674 14.8964 40.6223 15.2076 40.5944 15.5658C40.5397 15.9202 40.4859 16.3226 40.3803 16.7519C40.2852 17.1831 40.144 17.6393 39.9826 18.1157C39.8856 18.349 39.7896 18.5891 39.6878 18.834C39.5716 19.0722 39.4535 19.3143 39.3315 19.5611C39.0655 20.0413 38.7697 20.5253 38.4258 20.9882C38.0849 21.4512 37.7094 21.9025 37.3002 22.3213C35.6791 24.0202 33.6363 25.2342 32.0535 25.9689C31.2602 26.3396 30.5755 26.596 30.0953 26.7632C29.6112 26.9274 29.3394 26.9985 29.3394 26.9985L29.4931 27.543C29.4931 27.543 29.7908 27.4556 30.2787 27.2722C30.7704 27.0859 31.46 26.8025 32.2591 26.3992C33.8553 25.5991 35.9057 24.2968 37.5058 22.5143C37.9091 22.0754 38.2779 21.6048 38.6121 21.1217C38.9483 20.6415 39.2326 20.1383 39.488 19.6427C39.6042 19.3882 39.7166 19.1385 39.828 18.8946C39.9231 18.6439 40.0134 18.398 40.1017 18.1589C40.2535 17.67 40.3831 17.2071 40.4638 16.7682C40.557 16.3341 40.6002 15.9279 40.6424 15.5706C40.6626 15.2104 40.6972 14.8973 40.6953 14.639C40.6905 14.1213 40.6895 13.8265 40.6895 13.8265C40.6895 13.8265 40.6857 14.1223 40.6713 14.639Z" fill="#DDB14F"/>
</svg>
