<svg width="21" height="24" viewBox="0 0 21 24" fill="none" xmlns="http://www.w3.org/2000/svg">
<path d="M17.9356 2.97326C15.9653 1.06951 13.2929 -2.00592e-08 10.5064 0C7.71995 2.00592e-08 5.0476 1.06951 3.07726 2.97326C1.10692 4.877 2.07609e-08 7.45903 0 10.1513C-2.07609e-08 12.8436 1.10692 15.4257 3.07726 17.3294L9.60255 23.6461C9.71765 23.7583 9.8546 23.8473 10.0055 23.908C10.1564 23.9687 10.3182 24 10.4817 24C10.6451 24 10.807 23.9687 10.9578 23.908C11.1087 23.8473 11.2457 23.7583 11.3608 23.6461L17.9356 17.2696C19.8977 15.3738 21 12.8025 21 10.1214C21 7.44035 19.8977 4.86908 17.9356 2.97326ZM16.165 15.5588L10.5064 21.0501L4.84788 15.5588C3.72997 14.4777 2.96889 13.1006 2.66085 11.6017C2.35281 10.1027 2.51164 8.54912 3.11726 7.13736C3.72288 5.72559 4.7481 4.519 6.06333 3.6701C7.37856 2.82121 8.92474 2.36812 10.5064 2.36812C12.0881 2.36812 13.6343 2.82121 14.9495 3.6701C16.2648 4.519 17.29 5.72559 17.8956 7.13736C18.5012 8.54912 18.66 10.1027 18.352 11.6017C18.044 13.1006 17.2829 14.4777 16.165 15.5588ZM6.79185 6.47855C5.79227 7.44732 5.23097 8.75947 5.23097 10.1274C5.23097 11.4954 5.79227 12.8075 6.79185 13.7763C7.53447 14.495 8.48023 14.9859 9.51049 15.1872C10.5407 15.3886 11.6096 15.2915 12.583 14.9082C13.5563 14.5248 14.3909 13.8723 14.9819 13.0324C15.5729 12.1926 15.894 11.2028 15.905 10.1872C15.9105 9.50914 15.7753 8.83686 15.5074 8.21013C15.2394 7.5834 14.8441 7.01494 14.3448 6.53837C13.8541 6.05335 13.2689 5.66688 12.623 5.4012C11.9771 5.13553 11.2832 4.99589 10.5812 4.99033C9.87924 4.98477 9.18305 5.1134 8.53271 5.36881C7.88238 5.62422 7.29074 6.00137 6.79185 6.47855ZM12.599 12.0775C12.1298 12.5377 11.5096 12.8263 10.8446 12.8937C10.1796 12.9611 9.511 12.8032 8.95312 12.447C8.39525 12.0909 7.98274 11.5585 7.78613 10.941C7.58951 10.3235 7.621 9.6592 7.87521 9.06165C8.12943 8.4641 8.59057 7.97042 9.17981 7.66501C9.76905 7.35961 10.4498 7.26145 11.1056 7.38732C11.7615 7.51318 12.3517 7.85526 12.7754 8.35506C13.1991 8.85486 13.43 9.48135 13.4286 10.1274C13.4106 10.8659 13.0899 11.5672 12.5371 12.0775H12.599Z" fill="white"/>
</svg>
