<svg width="26" height="17" viewBox="0 0 26 17" fill="none" xmlns="http://www.w3.org/2000/svg">
<path d="M23.6416 4.875H21.2723V7.23342H18.9139V9.60267H21.2723V11.9611H23.6416V9.60267H26V7.23342H23.6416V4.875Z" fill="#7F8489"/>
<path d="M8.125 16.25C12.8137 16.25 15.9283 12.9588 15.9283 8.3135C15.9283 7.78158 15.873 7.371 15.7961 6.9615H8.12608V9.75433H12.7378C12.5493 10.9406 11.3414 13.2568 8.12608 13.2568C5.356 13.2568 3.094 10.9623 3.094 8.125C3.094 5.28775 5.35492 2.99217 8.12608 2.99217C9.711 2.99217 10.764 3.66817 11.3631 4.2445L13.5688 2.12767C12.1485 0.798417 10.3198 0 8.125 0C3.63567 0 0 3.63567 0 8.125C0 12.6143 3.63567 16.25 8.125 16.25Z" fill="#7F8489"/>
</svg>
