<svg width="22" height="28" viewBox="0 0 22 28" fill="none" xmlns="http://www.w3.org/2000/svg">
<path d="M17.0088 15.1144C16.8408 15.0464 16.6614 15.0127 16.4807 15.0153C16.3 15.0179 16.1215 15.0567 15.9555 15.1294C15.7895 15.2022 15.6393 15.3075 15.5133 15.4393C15.3873 15.5712 15.2881 15.727 15.2212 15.8979C15.1544 16.0687 15.1214 16.2513 15.1239 16.4352C15.1264 16.6191 15.1645 16.8006 15.236 16.9695C15.3075 17.1384 15.411 17.2913 15.5406 17.4195C15.6702 17.5477 15.8233 17.6487 15.9913 17.7167C17.9988 18.5281 19.25 19.7873 19.25 21.0045C19.25 22.9913 15.8675 25.2018 11 25.2018C6.1325 25.2018 2.75 22.9913 2.75 21.0045C2.75 19.7873 4.00125 18.5281 6.00875 17.7167C6.3479 17.5794 6.61955 17.3106 6.76395 16.9695C6.90836 16.6284 6.91368 16.2429 6.77875 15.8979C6.64382 15.5528 6.37969 15.2764 6.04447 15.1294C5.70925 14.9825 5.3304 14.9771 4.99125 15.1144C1.87 16.3735 0 18.5701 0 21.0045C0 24.922 4.82625 28 11 28C17.1737 28 22 24.922 22 21.0045C22 18.5701 20.13 16.3735 17.0088 15.1144ZM9.625 11.015V21.0045C9.625 21.3756 9.76987 21.7315 10.0277 21.9938C10.2856 22.2562 10.6353 22.4036 11 22.4036C11.3647 22.4036 11.7144 22.2562 11.9723 21.9938C12.2301 21.7315 12.375 21.3756 12.375 21.0045V11.015C13.6712 10.6745 14.8008 9.86465 15.5521 8.73729C16.3034 7.60994 16.6248 6.24246 16.4562 4.8912C16.2875 3.53994 15.6403 2.29766 14.6358 1.39722C13.6314 0.496779 12.3387 0 11 0C9.66134 0 8.36863 0.496779 7.36418 1.39722C6.35973 2.29766 5.71251 3.53994 5.54384 4.8912C5.37516 6.24246 5.69661 7.60994 6.44792 8.73729C7.19924 9.86465 8.32884 10.6745 9.625 11.015ZM11 2.81635C11.5439 2.81635 12.0756 2.98046 12.5278 3.28793C12.9801 3.5954 13.3325 4.03241 13.5407 4.54371C13.7488 5.05501 13.8033 5.61764 13.6972 6.16043C13.5911 6.70322 13.3291 7.20181 12.9445 7.59315C12.5599 7.98448 12.0699 8.25098 11.5365 8.35895C11.0031 8.46692 10.4501 8.4115 9.94762 8.19972C9.44512 7.98793 9.01563 7.62928 8.71346 7.16912C8.41128 6.70896 8.25 6.16796 8.25 5.61453C8.25 4.87241 8.53973 4.16068 9.05546 3.63592C9.57118 3.11116 10.2707 2.81635 11 2.81635Z" fill="#7F8489"/>
</svg>
