<svg width="47" height="27" viewBox="0 0 47 27" fill="none" xmlns="http://www.w3.org/2000/svg">
<path d="M44.4287 15.425H41.5726V20.016C41.5726 21.4842 40.3811 22.6758 38.9125 22.6758C38.4521 22.6758 38.025 22.5478 37.648 22.3414V23.6296C37.648 25.0992 36.4564 26.29 34.9871 26.29C33.5189 26.29 32.3269 25.0984 32.3269 23.6296V15.425H15.402V23.6296C15.402 25.0992 14.2111 26.29 12.7416 26.29C11.2727 26.29 10.0818 25.0984 10.0818 23.6296V22.3397C9.70431 22.5469 9.27638 22.6741 8.81648 22.6741C7.34681 22.6741 6.15586 21.484 6.15586 20.0143V15.4241H2.6286C1.36852 15.4241 0.34864 14.4044 0.34864 13.1443C0.34864 11.8846 1.36835 10.8644 2.6286 10.8644H6.15586V6.27502C6.15586 4.80618 7.34681 3.6149 8.81648 3.6149C9.27638 3.6149 9.70431 3.74274 10.0818 3.9493V2.65978C10.0818 1.19061 11.2727 0 12.7416 0C14.2111 0 15.402 1.19128 15.402 2.65978V10.8644H32.3269V2.66079C32.3269 1.19145 33.5182 0.00100937 34.9871 0.00100937C36.4554 0.00100937 37.648 1.19246 37.648 2.66079V3.94947C38.0257 3.74291 38.4519 3.61591 38.9125 3.61591C40.3813 3.61591 41.5726 4.80652 41.5726 6.27603V10.8655H44.4287C45.6888 10.8655 46.7097 11.8864 46.7097 13.1455C46.7097 14.4044 45.6888 15.425 44.4287 15.425Z" fill="#A0E552"/>
</svg>
