<svg width="36" height="64" viewBox="0 0 36 64" fill="none" xmlns="http://www.w3.org/2000/svg">
<path d="M32.7867 18.6461C29.6932 14.5027 25.3013 11.4058 20.3441 9.9187C19.9003 9.78511 19.5018 9.57203 19.1507 9.30595C21.3996 8.58281 23.7534 8.1423 26.158 8.02196L31.06 7.77686C32.3638 10.0423 33.1212 12.66 33.1212 15.4566C33.1212 16.5496 33.0031 17.6161 32.7867 18.6461ZM30.4086 24.1851C23.059 22.9298 16.597 18.6274 12.5949 12.4171C13.9507 11.5427 15.3837 10.7931 16.873 10.1649C17.6006 11.0238 18.5633 11.6907 19.7104 12.0351C24.3618 13.4306 28.4765 16.3751 31.2995 20.3265L31.9763 21.2737C31.5557 22.3027 31.0313 23.2798 30.4086 24.1851ZM29.5949 5.64054L26.0476 5.81829C23.2191 5.95961 20.4601 6.52267 17.8369 7.4335C17.7276 7.078 17.6646 6.70594 17.6646 6.31842C17.6646 4.88538 18.4618 3.59696 19.7436 2.95552L23.4134 1.1206C25.8345 2.09547 27.9587 3.65658 29.5949 5.64054ZM20.2481 0.234056L18.7554 0.980388C16.7218 1.99831 15.4566 4.04299 15.4566 6.31842C15.4566 6.98747 15.5659 7.63333 15.769 8.23835C14.2808 8.882 12.8433 9.63606 11.4798 10.5094C11.376 10.3139 11.2645 10.124 11.1652 9.92532L7.93364 3.46227C10.5933 1.30056 13.9783 0 17.6646 0C18.5468 0 19.4057 0.0916352 20.2481 0.234056ZM6.26212 5.05761L9.19003 10.9123C9.33687 11.2071 9.50027 11.4908 9.65704 11.7801C8.64243 12.5397 7.67639 13.3644 6.76335 14.2487C5.56989 13.2341 4.12691 12.5286 2.54261 12.2659C3.12112 9.52345 4.43825 7.05592 6.26212 5.05761ZM2.20808 15.4566C2.20808 15.1209 2.23679 14.793 2.25887 14.4618C3.36953 14.6594 4.38636 15.1463 5.23978 15.843C4.31238 16.8852 3.45565 17.9947 2.6773 19.1683C2.38252 17.9771 2.20808 16.7384 2.20808 15.4566ZM3.61132 21.8556C4.50338 20.3033 5.53787 18.8559 6.69711 17.5255C6.94442 17.9362 7.16633 18.3657 7.322 18.8349C8.40727 22.0918 10.1053 25.054 12.3664 27.6396L15.0172 30.6702C9.93195 29.787 5.69795 26.4175 3.61132 21.8556ZM18.1449 30.8888L14.0301 26.1856C11.9612 23.8219 10.41 21.1148 9.41636 18.1361C9.14145 17.3113 8.74179 16.5573 8.25933 15.8717C9.05865 15.0933 9.90324 14.368 10.7876 13.6923C14.9034 20.0317 21.3886 24.5307 28.8121 26.1337C26.1017 28.9634 22.3325 30.7597 18.1449 30.8888Z" fill="#4BBAB8"/>
<path d="M23.8318 41.9535L21.5288 44.2565L19.2258 41.9535H23.8318ZM7.34076 53.8374L9.93636 51.2429L12.2394 53.5459L8.10917 57.6761C7.8983 56.3877 7.64658 55.107 7.34076 53.8374ZM17.6646 48.1207L15.3616 45.8177L17.6646 43.5146L19.9677 45.8177L17.6646 48.1207ZM21.5288 47.3788L23.8318 49.6818L21.5288 51.9848L19.2258 49.6818L21.5288 47.3788ZM16.1035 49.6818L13.8005 51.9848L11.4975 49.6818L13.8005 47.3788L16.1035 49.6818ZM9.93636 48.1207L7.63333 45.8177L9.93636 43.5146L12.2394 45.8177L9.93636 48.1207ZM8.37525 49.6818L6.67834 51.3776C6.16386 49.6156 5.56657 47.88 4.87213 46.1787L8.37525 49.6818ZM13.8005 55.107L16.1035 57.4101L13.8005 59.7131L11.4975 57.4101L13.8005 55.107ZM15.3616 53.5459L17.6646 51.2429L19.9677 53.5459L17.6646 55.849L15.3616 53.5459ZM21.5288 55.107L23.8318 57.4101L21.5288 59.7131L19.2258 57.4101L21.5288 55.107ZM25.3929 55.849L23.0899 53.5459L25.3929 51.2429L27.6959 53.5459L25.3929 55.849ZM26.954 49.6818L29.2571 47.3788L29.7903 47.912C29.3697 49.0547 28.9921 50.2106 28.6509 51.3787L26.954 49.6818ZM25.3929 48.1207L23.0899 45.8177L25.3929 43.5146L27.6959 45.8177L25.3929 48.1207ZM16.1035 41.9535L13.8005 44.2565L11.4975 41.9535H16.1035ZM8.37525 41.9535L6.07222 44.2565L3.76919 41.9535H8.37525ZM9.93636 63.5772L8.67113 62.312C8.62255 61.6661 8.55962 61.0214 8.48786 60.3777L8.50884 60.3987L9.93636 58.9712L12.2394 61.2742L9.93636 63.5772ZM17.6646 63.5772L15.3616 61.2742L17.6646 58.9712L19.9677 61.2742L17.6646 63.5772ZM25.3929 63.5772L23.0899 61.2742L27.3206 57.0435C27.0136 58.7857 26.7917 60.5433 26.6593 62.3109L25.3929 63.5772ZM30.6735 45.673L26.954 41.9535H32.4102C31.782 43.1713 31.2035 44.4122 30.6735 45.673ZM35.3293 39.7454H0V37.5374H35.3293V39.7454Z" fill="#4BBAB8"/>
</svg>
