<svg width="18" height="21" viewBox="0 0 18 21" fill="none" xmlns="http://www.w3.org/2000/svg">
<path fill-rule="evenodd" clip-rule="evenodd" d="M16 6H14C14 3.79086 12.2091 2 10 2C7.79086 2 6 3.79086 6 6V9H15C16.6569 9 18 10.3431 18 12V18C18 19.6569 16.6569 21 15 21H3C1.34315 21 0 19.6569 0 18V12C0 10.3431 1.34315 9 3 9H4V6C4 2.68629 6.68629 0 10 0C13.3137 0 16 2.68629 16 6ZM15 11H3C2.44772 11 2 11.4477 2 12V18C2 18.5523 2.44772 19 3 19H15C15.5523 19 16 18.5523 16 18V12C16 11.4477 15.5523 11 15 11Z" fill="#59595E"/>
</svg>
