<svg width="22" height="22" viewBox="0 0 22 22" fill="none" xmlns="http://www.w3.org/2000/svg">
<path d="M21.4345 7.14726L14.8526 0.565437C14.0987 -0.188522 12.8719 -0.188436 12.118 0.565437L3.85904 8.82444H1.93367C0.867444 8.82444 0 9.69188 0 10.7581V20.0662C0 21.1325 0.867444 21.9999 1.93367 21.9999H16.7421C17.8084 21.9999 18.6758 21.1325 18.6758 20.0662V12.6405L21.4345 9.88185C22.1884 9.12794 22.1884 7.90122 21.4345 7.14726ZM13.0296 1.47697C13.1553 1.35132 13.3203 1.28846 13.4854 1.28846C13.6504 1.28846 13.8155 1.35132 13.9411 1.47697L17.3325 4.86841L13.3765 8.82444H5.68206L13.0296 1.47697ZM17.3867 20.0662C17.3867 20.4216 17.0975 20.7108 16.7421 20.7108H1.93367C1.57826 20.7108 1.28911 20.4216 1.28911 20.0662V10.7581C1.28911 10.4027 1.57826 10.1136 1.93367 10.1136H16.7421C17.0975 10.1136 17.3867 10.4027 17.3867 10.7581V20.0662ZM17.0044 8.8427C16.9186 8.83101 16.8311 8.82444 16.7421 8.82444H15.1996L18.2441 5.7799L19.1557 6.69147L17.0044 8.8427ZM20.5229 8.97037L18.6758 10.8175V10.7581C18.6758 10.2682 18.4923 9.82045 18.1908 9.47935L20.0672 7.603L20.5229 8.05875C20.7743 8.31008 20.7743 8.71903 20.5229 8.97037Z" fill="#7F8489"/>
<path d="M2.57828 17.4705H4.97684V18.7596H2.57828V17.4705Z" fill="#7F8489"/>
<path d="M6.28522 17.4705H8.68378V18.7596H6.28522V17.4705Z" fill="#7F8489"/>
<path d="M9.9921 17.4705H12.3907V18.7596H9.9921V17.4705Z" fill="#7F8489"/>
<path d="M13.699 17.4705H16.0975V18.7596H13.699V17.4705Z" fill="#7F8489"/>
<path d="M6.92976 12.0645H2.57828V15.9319H6.92976V12.0645ZM5.64065 14.6427H3.86739V13.3536H5.64065V14.6427Z" fill="#7F8489"/>
</svg>
