<svg width="49" height="49" viewBox="0 0 49 49" fill="none" xmlns="http://www.w3.org/2000/svg">
<path d="M47.1702 47.1703C51.3028 34.6946 48.4417 20.4104 38.5153 10.4836C28.5897 0.557976 14.3056 -2.30307 1.82982 1.82991C-2.303 14.3056 0.55789 28.5899 10.4843 38.5163C20.4102 48.4418 34.6945 51.3028 47.1702 47.1703ZM14.0609 22.7268L17.5346 19.253L14.5716 16.2901C14.0971 15.8164 14.0971 15.0466 14.5716 14.5729C15.0464 14.0981 15.8147 14.0981 16.2891 14.5729L19.252 17.5355L22.7259 14.0616C23.2004 13.5871 23.969 13.5871 24.4435 14.0616C24.9179 14.5353 24.9179 15.3054 24.4435 15.7792L20.9697 19.253L24.419 22.7026L27.8924 19.2288C28.3668 18.754 29.1355 18.754 29.6098 19.2288C30.0843 19.7025 30.0843 20.4723 29.6098 20.9458L26.1361 24.42L29.5854 27.8693L33.0591 24.3956C33.5344 23.9211 34.3023 23.9211 34.7767 24.3956C35.2511 24.8693 35.2511 25.6396 34.7767 26.1131L31.3029 29.5868L34.4272 32.7104C34.9016 33.1847 34.9016 33.9542 34.4272 34.4278C34.1907 34.6651 33.8799 34.7836 33.5692 34.7836C33.2576 34.7836 32.947 34.6651 32.7097 34.4278L29.5854 31.3044L26.1124 34.7773C25.8751 35.0147 25.5636 35.1332 25.2528 35.1332C24.9421 35.1332 24.6314 35.0147 24.3941 34.7773C23.9197 34.3044 23.9197 33.5343 24.3941 33.0606L27.8678 29.5868L24.4181 26.1376L20.9444 29.6107C20.7072 29.848 20.3965 29.9665 20.0852 29.9665C19.7745 29.9665 19.4634 29.848 19.2261 29.6107C18.7516 29.1377 18.7516 28.3676 19.2261 27.8931L22.6999 24.4202L19.2507 20.9706L15.7768 24.444C15.5395 24.6813 15.2284 24.7998 14.9176 24.7998C14.6069 24.7998 14.2956 24.6813 14.0585 24.444C13.5864 23.9695 13.5864 23.2005 14.0609 22.7268Z" fill="#D84E4F"/>
</svg>
