<svg width="57" height="57" viewBox="0 0 57 57" fill="none" xmlns="http://www.w3.org/2000/svg">
<path d="M44.5014 39.104C40.0115 39.104 36.3587 42.757 36.3587 47.2467C36.3587 51.7365 40.0117 55.3895 44.5014 55.3895C48.9912 55.3895 52.6442 51.7365 52.6442 47.2467C52.6442 42.757 48.9914 39.104 44.5014 39.104ZM44.5014 51.6023C42.0998 51.6023 40.146 49.6486 40.146 47.2469C40.146 44.8453 42.0998 42.8915 44.5014 42.8915C46.9031 42.8915 48.8568 44.8453 48.8568 47.2469C48.8568 49.6486 46.9031 51.6023 44.5014 51.6023Z" fill="#DDD550"/>
<path d="M54.5706 11.8008L45.1987 2.42883C43.5361 0.766231 41.2814 -0.0904954 38.8506 0.00757518C36.1957 0.117929 33.6561 1.38306 31.8829 3.47843L23.1575 13.7902C21.6899 15.5246 20.7075 17.5403 19.9934 19.6104C18.4455 24.0969 13.0553 37.2811 13.0553 37.2811L1.38009 48.9565C0.489969 49.8463 0 51.0294 0 52.288C0 53.5465 0.489969 54.7294 1.3799 55.6194L1.38009 55.6196C2.27002 56.5095 3.45301 56.9995 4.71142 56.9995C5.97002 56.9995 7.15321 56.5095 8.04294 55.6196L19.7185 43.944C19.7185 43.944 32.9028 38.5537 37.3893 37.0059C39.4591 36.2918 41.4748 35.3094 43.2092 33.8417L53.5212 25.1163C55.6164 23.3432 56.8815 20.8035 56.9919 18.1487C57.093 15.7179 56.233 13.4634 54.5706 11.8008ZM53.2078 17.9917C53.1898 18.4251 53.118 18.8538 52.9996 19.2711L50.1523 16.4238L51.992 14.584C52.8305 15.4789 53.2621 16.6827 53.2078 17.9917ZM45.574 26.8797L42.6352 23.9408L44.787 21.789L47.9053 24.9073L45.574 26.8797ZM41.0284 22.3341L38.6502 19.9558L40.802 17.804L43.1802 20.1823L41.0284 22.3341ZM19.1209 40.1096L16.8898 37.8786L20.3183 29.1466C20.9877 30.8478 21.9907 32.396 23.2972 33.7024C24.6038 35.0088 26.152 36.0118 27.853 36.6814L19.1209 40.1096ZM25.2508 17.2864L27.6937 19.7294L25.5417 21.8814L23.7926 20.1322C24.1425 19.1511 24.6286 18.1934 25.2508 17.2864ZM28.647 13.1659L31.4521 15.971L29.3003 18.1226L26.6746 15.497L28.647 13.1659ZM32.0923 9.09417L35.2104 12.2123L33.0586 14.3641L30.1198 11.4254L32.0923 9.09417ZM34.7742 5.92482C35.0316 5.62082 35.3146 5.34638 35.6171 5.10187L38.9692 8.45393L36.8174 10.6057L33.5653 7.35366L34.7742 5.92482ZM29.9451 33.4176C28.8257 33.0685 27.7701 32.5227 26.8272 31.7788L29.5264 29.0797L31.9046 31.4581L29.9451 33.4176ZM33.5116 33.0645L34.26 33.813C33.7376 33.8713 33.216 33.8932 32.6988 33.8771L33.5116 33.0645ZM25.2205 30.1721C24.4766 29.2292 23.931 28.1736 23.5819 27.0543L25.5415 25.0947L27.9198 27.4729L25.2205 30.1721ZM27.1483 23.4879L29.3003 21.3359L31.6785 23.7142L29.5265 25.8662L27.1483 23.4879ZM30.907 19.7294L33.0588 17.5776L35.4371 19.9558L33.2853 22.1076L30.907 19.7294ZM34.6654 15.971L36.8172 13.8192L39.1954 16.1975L37.0436 18.3491L34.6654 15.971ZM38.4239 12.2125L40.5757 10.0607L42.954 12.4389L40.8022 14.5907L38.4239 12.2125ZM23.935 23.4879L23.1222 24.3007C23.1061 23.7835 23.128 23.2618 23.1865 22.7394L23.935 23.4879ZM36.8673 33.2069L35.1181 31.4577L37.2701 29.3057L39.713 31.7487C38.806 32.3709 37.8484 32.857 36.8673 33.2069ZM33.5116 29.8512L31.1333 27.4729L33.2853 25.3209L35.6635 27.6992L33.5116 29.8512ZM34.8918 23.7142L37.0436 21.5624L39.4219 23.9406L37.2701 26.0924L34.8918 23.7142ZM42.4087 16.1973L44.5605 14.0455L46.9388 16.4238L44.787 18.5755L42.4087 16.1973ZM46.1673 12.4387L48.0099 10.5961L50.3881 12.9744L48.5455 14.817L46.1673 12.4387ZM46.4031 8.98958L44.5605 10.8322L42.1823 8.45393L44.0249 6.61132L46.4031 8.98958ZM39.0077 3.79164C39.0814 3.78857 39.1551 3.78704 39.2282 3.78704C40.4519 3.78704 41.5712 4.21597 42.4158 5.00726L40.5759 6.84719L37.7286 3.99987C38.1456 3.88165 38.5744 3.80968 39.0077 3.79164ZM5.36471 52.9415C5.12923 53.177 4.8544 53.2121 4.71142 53.2121C4.56844 53.2121 4.29342 53.177 4.05813 52.9415C4.05813 52.9413 4.05813 52.9413 4.05794 52.9413C3.82245 52.7059 3.78733 52.431 3.78733 52.288C3.78733 52.1451 3.82245 51.87 4.05813 51.6347L14.6737 41.0191L15.9805 42.3259L5.36471 52.9415ZM41.5025 30.3248L38.8768 27.6992L41.0286 25.5474L43.8337 28.3525L41.5025 30.3248ZM51.0748 22.2253L49.646 23.4344L46.3937 20.1821L48.5455 18.0303L51.8976 21.3824C51.6531 21.6848 51.3788 21.9681 51.0748 22.2253Z" fill="#DDD550"/>
</svg>
