<svg width="56" height="36" viewBox="0 0 56 36" fill="none" xmlns="http://www.w3.org/2000/svg">
<path d="M49.5969 28.5323C49.0146 29.2001 48.167 29.5848 47.2748 29.5848C46.3879 29.5848 45.5385 29.2019 44.958 28.5323C43.1184 26.4239 40.4294 25.0901 37.4003 25.0901C34.3979 25.0901 31.7302 26.3954 29.8924 28.4682C29.3083 29.1271 28.4731 29.5029 27.5916 29.5029C26.7119 29.5029 25.8732 29.1289 25.2873 28.47C23.446 26.3972 20.7854 25.0901 17.7812 25.0901C14.7806 25.0901 12.113 26.3954 10.277 28.47C9.68931 29.1289 8.85412 29.5029 7.97084 29.5029C7.09469 29.5029 6.25237 29.1289 5.67005 28.4718C4.21871 26.8335 2.24202 25.7044 0 25.2877V31.3674C0.480815 31.606 0.924233 31.9283 1.29642 32.3504C2.98996 34.2558 5.42074 35.3492 7.97262 35.3492C10.5227 35.3492 12.9571 34.2576 14.6453 32.3468C15.4573 31.435 16.5739 30.9328 17.783 30.9328C18.9957 30.9328 20.1105 31.435 20.9172 32.3486C22.609 34.2558 25.0415 35.351 27.5934 35.351C30.1417 35.351 32.5761 34.2558 34.2643 32.3486C35.0746 31.435 36.1911 30.9328 37.4038 30.9328C39.0528 30.9328 40.0875 31.8375 40.5576 32.3735C42.2494 34.3146 44.698 35.4294 47.2855 35.4294C49.8641 35.4258 52.3144 34.3128 54.0026 32.3735C54.3374 31.9906 54.9732 31.4315 55.8992 31.1376V25.2272C53.3918 25.5442 51.1765 26.7248 49.5969 28.5323Z" fill="#626568"/>
<path d="M43.4051 22.8249C47.3854 22.8249 50.612 19.5982 50.612 15.618C50.612 11.6377 47.3854 8.4111 43.4051 8.4111C39.4249 8.4111 36.1982 11.6377 36.1982 15.618C36.1982 19.5982 39.4249 22.8249 43.4051 22.8249Z" fill="#626568"/>
<path d="M26.744 27.1789C27.1714 27.6562 28.0048 27.6597 28.434 27.1771C30.2771 25.1025 32.772 23.7598 35.4663 23.3164C35.6515 22.2176 35.5946 21.0601 35.1992 19.9364C34.9909 19.347 32.699 11.6486 32.699 11.6486C32.6954 11.6326 32.4212 10.0459 33.3953 8.61947C34.3605 7.2073 36.3817 6.23855 39.2309 5.81115C40.8265 5.57253 41.9271 4.08734 41.6902 2.49175C41.4569 0.896158 39.9824 -0.206154 38.3673 0.0324724C33.8049 0.712736 30.505 2.49175 28.5711 5.31788C26.1635 8.83495 26.9043 12.5283 27.0129 12.9931L27.6326 15.504C27.2551 15.5699 26.874 15.6465 26.5036 15.7783L14.7147 19.94C12.072 20.8731 10.3731 23.2665 10.1862 25.8896C12.3142 24.1373 14.9943 23.1419 17.7866 23.1419C21.2039 23.1383 24.4699 24.6128 26.744 27.1789Z" fill="#626568"/>
</svg>
