<svg width="54" height="54" viewBox="0 0 54 54" fill="none" xmlns="http://www.w3.org/2000/svg">
<path d="M53.9203 17.619C54.3862 12.4949 52.811 7.84127 49.4851 4.51537C46.1591 1.18948 41.5051 -0.385664 36.3815 0.0801821C31.3654 0.53622 26.4844 2.90585 22.6377 6.75264C18.7909 10.5994 16.4214 15.4804 15.9653 20.4964C15.8249 22.0409 15.8712 23.5422 16.0936 24.9777L12.5697 34.937C12.3662 35.5118 12.5112 36.1522 12.9424 36.5834L17.417 41.0579C17.7188 41.3597 18.1232 41.5213 18.5358 41.5213C18.7127 41.5213 18.8909 41.4917 19.0632 41.4307L29.0218 37.9072C29.9095 38.0448 30.8223 38.1154 31.7551 38.1154C32.331 38.1154 32.9144 38.0888 33.504 38.0352C38.5201 37.5792 43.4011 35.2096 47.2477 31.3628C51.0946 27.5161 53.4643 22.635 53.9203 17.619ZM50.5338 18.9877L49.4851 17.9391L50.8178 16.6064C50.7819 17.394 50.6877 18.1902 50.5338 18.9877ZM50.438 12.5116L47.2479 15.7018L43.8919 12.3459L48.2902 7.94758C49.3216 9.30325 50.0348 10.8523 50.438 12.5116ZM45.0106 17.9391L40.5359 22.4137L37.18 19.0578L41.6546 14.5831L45.0106 17.9391ZM41.4892 3.56217C43.1486 3.96547 44.6982 4.678 46.0538 5.70957L41.6546 10.1087L38.2987 6.75274L41.4892 3.56217ZM39.4174 12.3459L34.9427 16.8205L31.5868 13.4645L36.0614 8.9899L39.4174 12.3459ZM24.875 20.1764L29.3496 15.7018L32.7056 19.0578L28.2309 23.5324L24.875 20.1764ZM25.9937 25.7697L21.5954 30.1679C20.5638 28.8124 19.8508 27.2633 19.4475 25.604L22.6376 22.4138L25.9937 25.7697ZM37.3937 3.18312L36.0614 4.51548L35.0134 3.46746C35.8106 3.31369 36.6064 3.21898 37.3937 3.18312ZM31.5703 4.49882L33.8242 6.75264L29.3495 11.2273L26.0353 7.91309C27.7525 6.43276 29.6335 5.29119 31.5703 4.49882ZM23.7984 10.1507L27.1124 13.4645L22.6377 17.9392L20.3833 15.6847C21.1755 13.7481 22.3183 11.8677 23.7984 10.1507ZM19.3518 19.1278L20.4005 20.1764L19.0678 21.5091C19.1036 20.7214 19.1979 19.9253 19.3518 19.1278ZM18.9487 38.1152L15.8853 35.0518L17.7006 29.9213C18.4051 31.2704 19.3075 32.5073 20.4003 33.6001C21.493 34.6928 22.7291 35.5959 24.0778 36.3003L18.9487 38.1152ZM28.3967 34.553C26.7373 34.1498 25.1882 33.4367 23.8327 32.4051L28.2309 28.0068L31.5869 31.3628L28.3967 34.553ZM30.4682 25.7697L34.9428 21.295L38.2988 24.651L33.8242 29.1256L30.4682 25.7697ZM32.4915 34.9327L33.8242 33.6L34.8728 34.6487C34.0753 34.8026 33.2792 34.897 32.4915 34.9327ZM38.3159 33.6172L36.0614 31.3628L40.5361 26.8881L43.85 30.202C42.1329 31.6822 40.2525 32.825 38.3159 33.6172ZM42.7733 24.651L47.248 20.1763L49.5024 22.4308C48.71 24.3674 47.5674 26.2478 46.0873 27.9648L42.7733 24.651Z" fill="#EA7753"/>
<path d="M48.1983 54.0004C51.4019 54.0004 53.999 51.4034 53.999 48.1998C53.999 44.9962 51.4019 42.3991 48.1983 42.3991C44.9947 42.3991 42.3976 44.9962 42.3976 48.1998C42.3976 51.4034 44.9947 54.0004 48.1983 54.0004Z" fill="#EA7753"/>
<path d="M0.617852 48.9081C-0.205948 49.7318 -0.205948 51.0674 0.617852 51.8911L2.10936 53.3827C2.93316 54.2065 4.26869 54.2065 5.09238 53.3827L10.7052 47.7698L6.23069 43.2953L0.617852 48.9081Z" fill="#EA7753"/>
<path d="M8.46264 41.0551L10.6996 38.8181L15.1735 43.292L12.9365 45.529L8.46264 41.0551Z" fill="#EA7753"/>
</svg>
